<svg width="222" height="111" viewBox="0 0 222 111" fill="none" xmlns="http://www.w3.org/2000/svg">
<path d="M6.35458 55.2321C5.32356 55.2321 4.36909 54.982 3.49119 54.4818C2.6235 53.9816 1.93445 53.2925 1.42404 52.4146C0.923839 51.5367 0.673739 50.5669 0.673739 49.5053C0.673739 48.4436 0.923839 47.4739 1.42404 46.596C1.93445 45.7181 2.6235 45.029 3.49119 44.5288C4.36909 44.0286 5.32356 43.7785 6.35458 43.7785C7.16103 43.7785 7.91643 43.9214 8.62079 44.2072C9.33536 44.4931 9.92233 44.8963 10.3817 45.4169L9.44765 46.351C9.10058 45.9222 8.65142 45.5956 8.10018 45.371C7.55914 45.1362 6.97728 45.0188 6.35458 45.0188C5.58897 45.0188 4.86929 45.2076 4.19555 45.5853C3.53202 45.9528 2.9961 46.4786 2.58777 47.1625C2.18965 47.8362 1.99059 48.6172 1.99059 49.5053C1.99059 50.3934 2.18965 51.1794 2.58777 51.8634C2.9961 52.5371 3.53202 53.0628 4.19555 53.4405C4.86929 53.808 5.58897 53.9918 6.35458 53.9918C7.08957 53.9918 7.70206 53.8795 8.19205 53.6549C8.69225 53.4201 9.1261 53.1139 9.49359 52.7362C9.759 52.4503 9.97337 52.1033 10.1367 51.6949C10.3 51.2866 10.397 50.8425 10.4276 50.3628H6.38521V49.1531H11.6526C11.7037 49.4389 11.7292 49.7043 11.7292 49.9493C11.7292 50.6231 11.622 51.2815 11.4076 51.9246C11.1932 52.5575 10.8513 53.1139 10.3817 53.5936C9.35068 54.6859 8.0083 55.2321 6.35458 55.2321ZM16.7464 55.2321C16.0013 55.2321 15.3326 55.0585 14.7405 54.7114C14.1485 54.3542 13.684 53.8693 13.3471 53.2568C13.0205 52.6341 12.8571 51.945 12.8571 51.1896C12.8571 50.4342 13.0205 49.7503 13.3471 49.1378C13.684 48.5151 14.1485 48.0302 14.7405 47.6831C15.3326 47.3258 16.0013 47.1472 16.7464 47.1472C17.4916 47.1472 18.1603 47.3258 18.7524 47.6831C19.3546 48.0302 19.8191 48.5151 20.1458 49.1378C20.4826 49.7503 20.6511 50.4342 20.6511 51.1896C20.6511 51.945 20.4826 52.6341 20.1458 53.2568C19.8191 53.8693 19.3546 54.3542 18.7524 54.7114C18.1603 55.0585 17.4916 55.2321 16.7464 55.2321ZM16.7464 54.053C17.2058 54.053 17.6346 53.9356 18.0327 53.7008C18.4308 53.466 18.7472 53.1343 18.982 52.7055C19.227 52.2666 19.3495 51.7613 19.3495 51.1896C19.3495 50.618 19.227 50.1178 18.982 49.689C18.7472 49.2501 18.4308 48.9132 18.0327 48.6784C17.6346 48.4436 17.2058 48.3262 16.7464 48.3262C16.2973 48.3262 15.8737 48.4436 15.4755 48.6784C15.0774 48.9132 14.7559 49.2501 14.5109 49.689C14.2761 50.1178 14.1587 50.618 14.1587 51.1896C14.1587 51.7613 14.2761 52.2666 14.5109 52.7055C14.7559 53.1343 15.0774 53.466 15.4755 53.7008C15.8737 53.9356 16.2973 54.053 16.7464 54.053ZM25.5839 55.2321C24.8387 55.2321 24.1701 55.0585 23.578 54.7114C22.9859 54.3542 22.5214 53.8693 22.1846 53.2568C21.8579 52.6341 21.6946 51.945 21.6946 51.1896C21.6946 50.4342 21.8579 49.7503 22.1846 49.1378C22.5214 48.5151 22.9859 48.0302 23.578 47.6831C24.1701 47.3258 24.8387 47.1472 25.5839 47.1472C26.3291 47.1472 26.9977 47.3258 27.5898 47.6831C28.1921 48.0302 28.6565 48.5151 28.9832 49.1378C29.3201 49.7503 29.4885 50.4342 29.4885 51.1896C29.4885 51.945 29.3201 52.6341 28.9832 53.2568C28.6565 53.8693 28.1921 54.3542 27.5898 54.7114C26.9977 55.0585 26.3291 55.2321 25.5839 55.2321ZM25.5839 54.053C26.0433 54.053 26.472 53.9356 26.8701 53.7008C27.2682 53.466 27.5847 53.1343 27.8195 52.7055C28.0645 52.2666 28.187 51.7613 28.187 51.1896C28.187 50.618 28.0645 50.1178 27.8195 49.689C27.5847 49.2501 27.2682 48.9132 26.8701 48.6784C26.472 48.4436 26.0433 48.3262 25.5839 48.3262C25.1347 48.3262 24.7111 48.4436 24.313 48.6784C23.9149 48.9132 23.5933 49.2501 23.3483 49.689C23.1135 50.1178 22.9961 50.618 22.9961 51.1896C22.9961 51.7613 23.1135 52.2666 23.3483 52.7055C23.5933 53.1343 23.9149 53.466 24.313 53.7008C24.7111 53.9356 25.1347 54.053 25.5839 54.053ZM34.2988 58.5395C33.3801 58.5395 32.6298 58.32 32.0479 57.8811C31.4661 57.4421 31.073 56.9317 30.8689 56.3499L32.0785 55.8445C32.2317 56.2937 32.5022 56.6561 32.8901 56.9317C33.2882 57.2175 33.7578 57.3605 34.2988 57.3605C35.1053 57.3605 35.7229 57.1206 36.1516 56.6408C36.5906 56.1712 36.81 55.5128 36.81 54.6655V53.854H36.7488C36.5038 54.2419 36.1516 54.5634 35.6922 54.8186C35.2329 55.0738 34.7123 55.2014 34.1304 55.2014C33.4873 55.2014 32.8901 55.0279 32.3389 54.6808C31.7876 54.3337 31.3487 53.854 31.022 53.2415C30.6953 52.629 30.532 51.9399 30.532 51.1743C30.532 50.4087 30.6953 49.7196 31.022 49.1072C31.3487 48.4947 31.7876 48.0149 32.3389 47.6678C32.8901 47.3207 33.4873 47.1472 34.1304 47.1472C34.7123 47.1472 35.2329 47.2748 35.6922 47.53C36.1516 47.7852 36.5038 48.1068 36.7488 48.4947H36.81V47.3922H38.0503V54.6808C38.0503 55.5179 37.887 56.2274 37.5603 56.8092C37.2337 57.3911 36.7845 57.8249 36.2129 58.1108C35.6514 58.3966 35.0134 58.5395 34.2988 58.5395ZM34.3294 54.0224C34.7786 54.0224 35.192 53.9101 35.5697 53.6855C35.9474 53.4507 36.2486 53.119 36.4732 52.6902C36.708 52.2615 36.8253 51.7562 36.8253 51.1743C36.8253 50.5924 36.708 50.0871 36.4732 49.6584C36.2486 49.2194 35.9474 48.8877 35.5697 48.6631C35.192 48.4385 34.7786 48.3262 34.3294 48.3262C33.8803 48.3262 33.4669 48.4436 33.0892 48.6784C32.7115 48.903 32.4052 49.2297 32.1704 49.6584C31.9458 50.0871 31.8336 50.5924 31.8336 51.1743C31.8336 51.7562 31.9458 52.2615 32.1704 52.6902C32.4052 53.119 32.7115 53.4507 33.0892 53.6855C33.4669 53.9101 33.8803 54.0224 34.3294 54.0224ZM39.9627 44.0235H41.2642V54.9871H39.9627V44.0235ZM46.4719 55.2321C45.7369 55.2321 45.0785 55.0585 44.4967 54.7114C43.925 54.3644 43.4758 53.8846 43.1492 53.2721C42.8225 52.6596 42.6592 51.9654 42.6592 51.1896C42.6592 50.4546 42.8123 49.7809 43.1186 49.1684C43.4248 48.5457 43.8586 48.0557 44.4201 47.6984C44.9918 47.3309 45.6451 47.1472 46.3801 47.1472C47.1151 47.1472 47.7582 47.3156 48.3094 47.6525C48.8709 47.9792 49.2996 48.4436 49.5956 49.0459C49.8917 49.6482 50.0397 50.3423 50.0397 51.1284C50.0397 51.2713 50.0295 51.3734 50.0091 51.4346H43.976C43.9965 52.0063 44.1343 52.4912 44.3895 52.8893C44.6447 53.2772 44.9611 53.5681 45.3388 53.7621C45.7267 53.956 46.1249 54.053 46.5332 54.053C47.4928 54.053 48.2328 53.5834 48.7535 52.6443L49.9019 53.1955C49.5752 53.808 49.121 54.3031 48.5391 54.6808C47.9674 55.0483 47.2784 55.2321 46.4719 55.2321ZM48.6616 50.3475C48.6412 50.0412 48.5544 49.735 48.4013 49.4287C48.2482 49.1225 47.9981 48.8622 47.651 48.6478C47.3141 48.4334 46.8803 48.3262 46.3494 48.3262C45.7778 48.3262 45.2827 48.51 44.8642 48.8775C44.4456 49.245 44.1802 49.735 44.0679 50.3475H48.6616ZM55.3259 44.0235H58.6486C59.7715 44.0235 60.7515 44.2583 61.5886 44.7279C62.4257 45.1872 63.0688 45.8303 63.5179 46.6572C63.9671 47.4841 64.1917 48.4334 64.1917 49.5053C64.1917 50.5771 63.9671 51.5265 63.5179 52.3534C63.0688 53.1802 62.4257 53.8284 61.5886 54.298C60.7515 54.7574 59.7715 54.9871 58.6486 54.9871H55.3259V44.0235ZM58.6486 53.7468C59.9451 53.7468 60.971 53.3742 61.7264 52.629C62.4818 51.8838 62.8595 50.8425 62.8595 49.5053C62.8595 48.168 62.4818 47.1268 61.7264 46.3816C60.971 45.6364 59.9451 45.2638 58.6486 45.2638H56.6274V53.7468H58.6486ZM68.9618 55.2321C68.2268 55.2321 67.5684 55.0585 66.9865 54.7114C66.4149 54.3644 65.9657 53.8846 65.639 53.2721C65.3124 52.6596 65.149 51.9654 65.149 51.1896C65.149 50.4546 65.3022 49.7809 65.6084 49.1684C65.9147 48.5457 66.3485 48.0557 66.9099 47.6984C67.4816 47.3309 68.1349 47.1472 68.8699 47.1472C69.6049 47.1472 70.248 47.3156 70.7993 47.6525C71.3607 47.9792 71.7895 48.4436 72.0855 49.0459C72.3815 49.6482 72.5295 50.3423 72.5295 51.1284C72.5295 51.2713 72.5193 51.3734 72.4989 51.4346H66.4659C66.4863 52.0063 66.6241 52.4912 66.8793 52.8893C67.1345 53.2772 67.451 53.5681 67.8287 53.7621C68.2166 53.956 68.6147 54.053 69.023 54.053C69.9826 54.053 70.7227 53.5834 71.2433 52.6443L72.3917 53.1955C72.0651 53.808 71.6108 54.3031 71.0289 54.6808C70.4573 55.0483 69.7682 55.2321 68.9618 55.2321ZM71.1514 50.3475C71.131 50.0412 71.0443 49.735 70.8911 49.4287C70.738 49.1225 70.4879 48.8622 70.1408 48.6478C69.804 48.4334 69.3701 48.3262 68.8393 48.3262C68.2676 48.3262 67.7725 48.51 67.354 48.8775C66.9355 49.245 66.6701 49.735 66.5578 50.3475H71.1514ZM72.9895 47.3922H74.3982L76.7257 53.4558H76.7563L79.1144 47.3922H80.4925L77.3841 54.9871H76.0673L72.9895 47.3922ZM84.6927 55.2321C83.9577 55.2321 83.2993 55.0585 82.7174 54.7114C82.1458 54.3644 81.6966 53.8846 81.37 53.2721C81.0433 52.6596 80.88 51.9654 80.88 51.1896C80.88 50.4546 81.0331 49.7809 81.3393 49.1684C81.6456 48.5457 82.0794 48.0557 82.6409 47.6984C83.2125 47.3309 83.8659 47.1472 84.6009 47.1472C85.3358 47.1472 85.979 47.3156 86.5302 47.6525C87.0916 47.9792 87.5204 48.4436 87.8164 49.0459C88.1125 49.6482 88.2605 50.3423 88.2605 51.1284C88.2605 51.2713 88.2503 51.3734 88.2299 51.4346H82.1968C82.2172 52.0063 82.3551 52.4912 82.6103 52.8893C82.8655 53.2772 83.1819 53.5681 83.5596 53.7621C83.9475 53.956 84.3456 54.053 84.754 54.053C85.7135 54.053 86.4536 53.5834 86.9742 52.6443L88.1227 53.1955C87.796 53.808 87.3417 54.3031 86.7599 54.6808C86.1882 55.0483 85.4992 55.2321 84.6927 55.2321ZM86.8824 50.3475C86.862 50.0412 86.7752 49.735 86.6221 49.4287C86.4689 49.1225 86.2188 48.8622 85.8718 48.6478C85.5349 48.4334 85.1011 48.3262 84.5702 48.3262C83.9986 48.3262 83.5035 48.51 83.0849 48.8775C82.6664 49.245 82.401 49.735 82.2887 50.3475H86.8824ZM89.7275 44.0235H91.029V54.9871H89.7275V44.0235ZM96.3133 55.2321C95.5681 55.2321 94.8995 55.0585 94.3074 54.7114C93.7153 54.3542 93.2508 53.8693 92.914 53.2568C92.5873 52.6341 92.424 51.945 92.424 51.1896C92.424 50.4342 92.5873 49.7503 92.914 49.1378C93.2508 48.5151 93.7153 48.0302 94.3074 47.6831C94.8995 47.3258 95.5681 47.1472 96.3133 47.1472C97.0585 47.1472 97.7271 47.3258 98.3192 47.6831C98.9215 48.0302 99.3859 48.5151 99.7126 49.1378C100.049 49.7503 100.218 50.4342 100.218 51.1896C100.218 51.945 100.049 52.6341 99.7126 53.2568C99.3859 53.8693 98.9215 54.3542 98.3192 54.7114C97.7271 55.0585 97.0585 55.2321 96.3133 55.2321ZM96.3133 54.053C96.7727 54.053 97.2014 53.9356 97.5995 53.7008C97.9976 53.466 98.3141 53.1343 98.5489 52.7055C98.7939 52.2666 98.9164 51.7613 98.9164 51.1896C98.9164 50.618 98.7939 50.1178 98.5489 49.689C98.3141 49.2501 97.9976 48.9132 97.5995 48.6784C97.2014 48.4436 96.7727 48.3262 96.3133 48.3262C95.8641 48.3262 95.4405 48.4436 95.0424 48.6784C94.6442 48.9132 94.3227 49.2501 94.0777 49.689C93.8429 50.1178 93.7255 50.618 93.7255 51.1896C93.7255 51.7613 93.8429 52.2666 94.0777 52.7055C94.3227 53.1343 94.6442 53.466 95.0424 53.7008C95.4405 53.9356 95.8641 54.053 96.3133 54.053ZM101.554 47.3922H102.794V48.51H102.856C103.101 48.1221 103.453 47.8005 103.912 47.5453C104.372 47.2799 104.902 47.1472 105.505 47.1472C106.158 47.1472 106.76 47.3258 107.312 47.6831C107.863 48.0302 108.302 48.51 108.628 49.1225C108.955 49.735 109.118 50.424 109.118 51.1896C109.118 51.9552 108.955 52.6443 108.628 53.2568C108.302 53.8693 107.863 54.3542 107.312 54.7114C106.76 55.0585 106.158 55.2321 105.505 55.2321C104.902 55.2321 104.366 55.1045 103.897 54.8493C103.438 54.5838 103.09 54.2521 102.856 53.854H102.794L102.856 54.9105V58.2945H101.554V47.3922ZM105.306 54.053C105.755 54.053 106.168 53.9356 106.546 53.7008C106.934 53.466 107.24 53.1343 107.465 52.7055C107.699 52.2666 107.817 51.7613 107.817 51.1896C107.817 50.618 107.699 50.1178 107.465 49.689C107.24 49.2501 106.934 48.9132 106.546 48.6784C106.168 48.4436 105.755 48.3262 105.306 48.3262C104.856 48.3262 104.438 48.4436 104.05 48.6784C103.672 48.903 103.366 49.2348 103.131 49.6737C102.907 50.1025 102.794 50.6078 102.794 51.1896C102.794 51.7613 102.907 52.2666 103.131 52.7055C103.366 53.1445 103.672 53.4814 104.05 53.7161C104.438 53.9407 104.856 54.053 105.306 54.053ZM113.971 55.2321C113.236 55.2321 112.578 55.0585 111.996 54.7114C111.424 54.3644 110.975 53.8846 110.649 53.2721C110.322 52.6596 110.159 51.9654 110.159 51.1896C110.159 50.4546 110.312 49.7809 110.618 49.1684C110.924 48.5457 111.358 48.0557 111.92 47.6984C112.491 47.3309 113.145 47.1472 113.88 47.1472C114.615 47.1472 115.258 47.3156 115.809 47.6525C116.37 47.9792 116.799 48.4436 117.095 49.0459C117.391 49.6482 117.539 50.3423 117.539 51.1284C117.539 51.2713 117.529 51.3734 117.509 51.4346H111.476C111.496 52.0063 111.634 52.4912 111.889 52.8893C112.144 53.2772 112.461 53.5681 112.838 53.7621C113.226 53.956 113.624 54.053 114.033 54.053C114.992 54.053 115.732 53.5834 116.253 52.6443L117.401 53.1955C117.075 53.808 116.62 54.3031 116.039 54.6808C115.467 55.0483 114.778 55.2321 113.971 55.2321ZM116.161 50.3475C116.141 50.0412 116.054 49.735 115.901 49.4287C115.748 49.1225 115.498 48.8622 115.15 48.6478C114.814 48.4334 114.38 48.3262 113.849 48.3262C113.277 48.3262 112.782 48.51 112.364 48.8775C111.945 49.245 111.68 49.735 111.567 50.3475H116.161ZM119.006 47.3922H120.246V48.6325H120.308C120.451 48.2139 120.742 47.8669 121.18 47.5912C121.63 47.3054 122.074 47.1625 122.513 47.1625C122.829 47.1625 123.125 47.2084 123.401 47.3003V48.709C123.125 48.5559 122.768 48.4794 122.329 48.4794C121.972 48.4794 121.635 48.5865 121.318 48.8009C121.012 49.0051 120.767 49.2807 120.583 49.6278C120.4 49.9749 120.308 50.3526 120.308 50.7609V54.9871H119.006V47.3922ZM131.016 55.2321C130.465 55.2321 129.929 55.1198 129.409 54.8952C128.898 54.6604 128.444 54.3235 128.046 53.8846C127.658 53.4354 127.377 52.8944 127.204 52.2615L128.444 51.7562C128.618 52.4095 128.939 52.9454 129.409 53.364C129.878 53.7825 130.424 53.9918 131.047 53.9918C131.69 53.9918 132.231 53.8233 132.67 53.4865C133.109 53.1394 133.329 52.6698 133.329 52.0777C133.329 51.5673 133.14 51.1488 132.762 50.8221C132.395 50.4853 131.787 50.1739 130.94 49.8881L130.251 49.6431C129.475 49.3675 128.842 49.0051 128.352 48.5559C127.862 48.1068 127.617 47.4841 127.617 46.6878C127.617 46.1672 127.76 45.6874 128.046 45.2485C128.332 44.7993 128.725 44.442 129.225 44.1766C129.735 43.9112 130.307 43.7785 130.94 43.7785C131.573 43.7785 132.124 43.8959 132.594 44.1307C133.073 44.3655 133.451 44.6513 133.727 44.9882C134.013 45.325 134.206 45.6568 134.309 45.9835L133.099 46.5041C132.987 46.1162 132.752 45.7742 132.395 45.4782C132.037 45.1719 131.563 45.0188 130.971 45.0188C130.409 45.0188 129.929 45.177 129.531 45.4935C129.133 45.8099 128.934 46.208 128.934 46.6878C128.934 47.1166 129.102 47.4687 129.439 47.7444C129.776 48.0098 130.287 48.2599 130.971 48.4947L131.675 48.7397C132.604 49.0765 133.329 49.5002 133.849 50.0106C134.38 50.5108 134.645 51.1947 134.645 52.0624C134.645 52.7668 134.462 53.3589 134.094 53.8386C133.737 54.3184 133.283 54.6706 132.731 54.8952C132.18 55.1198 131.609 55.2321 131.016 55.2321ZM138.798 55.1096C138.492 55.1096 138.206 55.0585 137.941 54.9564C137.685 54.8544 137.466 54.7165 137.282 54.543C137.078 54.3491 136.925 54.1245 136.823 53.8693C136.731 53.6039 136.685 53.2925 136.685 52.9352V48.5712H135.338V47.3922H136.685V45.126H137.971V47.3922H139.839V48.5712H137.971V52.6137C137.971 53.0424 138.058 53.3589 138.232 53.563C138.405 53.7876 138.671 53.8999 139.028 53.8999C139.344 53.8999 139.62 53.8284 139.855 53.6855V54.9411C139.691 55.0024 139.533 55.0432 139.38 55.0636C139.237 55.0942 139.043 55.1096 138.798 55.1096ZM144.164 55.2321C143.224 55.2321 142.51 54.9615 142.02 54.4205C141.54 53.8795 141.3 53.1292 141.3 52.1696V47.3922H142.602V51.9552C142.602 53.3538 143.23 54.053 144.485 54.053C144.904 54.053 145.276 53.9356 145.603 53.7008C145.94 53.466 146.195 53.1598 146.369 52.7821C146.552 52.4044 146.644 52.0063 146.644 51.5877V47.3922H147.93V54.9871H146.705V53.854H146.644C146.42 54.2419 146.078 54.5685 145.618 54.8339C145.169 55.0994 144.684 55.2321 144.164 55.2321ZM152.95 55.2321C152.297 55.2321 151.695 55.0585 151.143 54.7114C150.592 54.3644 150.153 53.8846 149.826 53.2721C149.5 52.6494 149.336 51.9552 149.336 51.1896C149.336 50.424 149.5 49.735 149.826 49.1225C150.153 48.4998 150.592 48.0149 151.143 47.6678C151.695 47.3207 152.297 47.1472 152.95 47.1472C153.542 47.1472 154.073 47.2799 154.543 47.5453C155.012 47.8005 155.364 48.1221 155.599 48.51H155.66L155.599 47.4687V44.0235H156.885V54.9871H155.66V53.854H155.599C155.364 54.2521 155.012 54.5838 154.543 54.8493C154.073 55.1045 153.542 55.2321 152.95 55.2321ZM153.149 54.053C153.598 54.053 154.012 53.9407 154.39 53.7161C154.777 53.4814 155.084 53.1445 155.308 52.7055C155.543 52.2666 155.66 51.7613 155.66 51.1896C155.66 50.6078 155.543 50.1025 155.308 49.6737C155.084 49.2348 154.777 48.903 154.39 48.6784C154.012 48.4436 153.598 48.3262 153.149 48.3262C152.7 48.3262 152.282 48.4436 151.894 48.6784C151.516 48.9132 151.21 49.2501 150.975 49.689C150.75 50.1178 150.638 50.618 150.638 51.1896C150.638 51.7613 150.75 52.2666 150.975 52.7055C151.21 53.1343 151.516 53.466 151.894 53.7008C152.282 53.9356 152.7 54.053 153.149 54.053ZM162.106 55.2321C161.371 55.2321 160.713 55.0585 160.131 54.7114C159.559 54.3644 159.11 53.8846 158.784 53.2721C158.457 52.6596 158.294 51.9654 158.294 51.1896C158.294 50.4546 158.447 49.7809 158.753 49.1684C159.059 48.5457 159.493 48.0557 160.054 47.6984C160.626 47.3309 161.279 47.1472 162.014 47.1472C162.749 47.1472 163.393 47.3156 163.944 47.6525C164.505 47.9792 164.934 48.4436 165.23 49.0459C165.526 49.6482 165.674 50.3423 165.674 51.1284C165.674 51.2713 165.664 51.3734 165.643 51.4346H159.61C159.631 52.0063 159.769 52.4912 160.024 52.8893C160.279 53.2772 160.595 53.5681 160.973 53.7621C161.361 53.956 161.759 54.053 162.168 54.053C163.127 54.053 163.867 53.5834 164.388 52.6443L165.536 53.1955C165.21 53.808 164.755 54.3031 164.173 54.6808C163.602 55.0483 162.913 55.2321 162.106 55.2321ZM164.296 50.3475C164.276 50.0412 164.189 49.735 164.036 49.4287C163.883 49.1225 163.632 48.8622 163.285 48.6478C162.948 48.4334 162.515 48.3262 161.984 48.3262C161.412 48.3262 160.917 48.51 160.498 48.8775C160.08 49.245 159.815 49.735 159.702 50.3475H164.296ZM167.141 47.3922H168.381V48.5253H168.443C168.657 48.1374 168.994 47.8107 169.453 47.5453C169.913 47.2799 170.403 47.1472 170.923 47.1472C171.852 47.1472 172.556 47.4177 173.036 47.9587C173.526 48.4998 173.771 49.2399 173.771 50.179V54.9871H172.485V50.3781C172.485 49.0102 171.847 48.3262 170.571 48.3262C170.163 48.3262 169.795 48.4436 169.468 48.6784C169.142 48.9132 168.887 49.2194 168.703 49.5972C168.529 49.9749 168.443 50.373 168.443 50.7915V54.9871H167.141V47.3922ZM178.155 55.1096C177.849 55.1096 177.563 55.0585 177.298 54.9564C177.043 54.8544 176.823 54.7165 176.64 54.543C176.435 54.3491 176.282 54.1245 176.18 53.8693C176.088 53.6039 176.042 53.2925 176.042 52.9352V48.5712H174.695V47.3922H176.042V45.126H177.329V47.3922H179.197V48.5712H177.329V52.6137C177.329 53.0424 177.415 53.3589 177.589 53.563C177.762 53.7876 178.028 53.8999 178.385 53.8999C178.702 53.8999 178.977 53.8284 179.212 53.6855V54.9411C179.049 55.0024 178.89 55.0432 178.737 55.0636C178.594 55.0942 178.4 55.1096 178.155 55.1096ZM189.368 55.2321C188.317 55.2321 187.357 54.982 186.49 54.4818C185.622 53.9816 184.938 53.2925 184.438 52.4146C183.948 51.5367 183.703 50.5669 183.703 49.5053C183.703 48.4436 183.948 47.4739 184.438 46.596C184.938 45.7181 185.622 45.029 186.49 44.5288C187.357 44.0286 188.317 43.7785 189.368 43.7785C190.195 43.7785 190.946 43.9367 191.619 44.2532C192.303 44.5594 192.89 44.9984 193.38 45.57L192.461 46.4735C192.053 45.9733 191.594 45.6058 191.083 45.371C190.583 45.1362 190.012 45.0188 189.368 45.0188C188.582 45.0188 187.858 45.2076 187.194 45.5853C186.531 45.9528 186 46.4786 185.602 47.1625C185.214 47.8362 185.02 48.6172 185.02 49.5053C185.02 50.3934 185.214 51.1794 185.602 51.8634C186 52.5371 186.531 53.0628 187.194 53.4405C187.858 53.808 188.582 53.9918 189.368 53.9918C190.706 53.9918 191.839 53.4456 192.768 52.3534L193.702 53.2721C193.202 53.8744 192.579 54.3542 191.834 54.7114C191.088 55.0585 190.267 55.2321 189.368 55.2321ZM195.134 44.0235H196.435V54.9871H195.134V44.0235ZM201.136 55.2321C200.197 55.2321 199.482 54.9615 198.992 54.4205C198.512 53.8795 198.272 53.1292 198.272 52.1696V47.3922H199.574V51.9552C199.574 53.3538 200.202 54.053 201.457 54.053C201.876 54.053 202.249 53.9356 202.575 53.7008C202.912 53.466 203.167 53.1598 203.341 52.7821C203.525 52.4044 203.616 52.0063 203.616 51.5877V47.3922H204.903V54.9871H203.678V53.854H203.616C203.392 54.2419 203.05 54.5685 202.591 54.8339C202.141 55.0994 201.656 55.2321 201.136 55.2321ZM210.763 55.2321C210.161 55.2321 209.625 55.1045 209.155 54.8493C208.696 54.5838 208.349 54.2521 208.114 53.854H208.053V54.9871H206.812V44.0235H208.114V47.4687L208.053 48.51H208.114C208.359 48.1221 208.711 47.8005 209.17 47.5453C209.63 47.2799 210.161 47.1472 210.763 47.1472C211.416 47.1472 212.018 47.3258 212.57 47.6831C213.121 48.0302 213.56 48.51 213.887 49.1225C214.213 49.735 214.377 50.424 214.377 51.1896C214.377 51.9552 214.213 52.6443 213.887 53.2568C213.56 53.8693 213.121 54.3542 212.57 54.7114C212.018 55.0585 211.416 55.2321 210.763 55.2321ZM210.564 54.053C211.013 54.053 211.426 53.9356 211.804 53.7008C212.192 53.466 212.498 53.1343 212.723 52.7055C212.958 52.2666 213.075 51.7613 213.075 51.1896C213.075 50.618 212.958 50.1178 212.723 49.689C212.498 49.2501 212.192 48.9132 211.804 48.6784C211.426 48.4436 211.013 48.3262 210.564 48.3262C210.115 48.3262 209.696 48.4436 209.308 48.6784C208.93 48.903 208.624 49.2348 208.389 49.6737C208.165 50.1025 208.053 50.6078 208.053 51.1896C208.053 51.7613 208.165 52.2666 208.389 52.7055C208.624 53.1445 208.93 53.4814 209.308 53.7161C209.696 53.9407 210.115 54.053 210.564 54.053ZM218.449 55.2321C217.643 55.2321 216.959 55.0279 216.397 54.6196C215.836 54.2112 215.443 53.7059 215.218 53.1037L216.367 52.5984C216.571 53.0781 216.857 53.4456 217.224 53.7008C217.602 53.956 218.01 54.0836 218.449 54.0836C218.939 54.0836 219.342 53.9765 219.659 53.7621C219.985 53.5477 220.149 53.2874 220.149 52.9812C220.149 52.6851 220.026 52.4401 219.781 52.2462C219.546 52.0522 219.138 51.8838 218.556 51.7409L217.515 51.4806C216.943 51.3479 216.453 51.108 216.045 50.7609C215.647 50.4138 215.448 49.9544 215.448 49.3828C215.448 48.9132 215.581 48.51 215.846 48.1731C216.122 47.8362 216.484 47.581 216.933 47.4075C217.382 47.234 217.872 47.1472 218.403 47.1472C219.056 47.1472 219.648 47.3003 220.179 47.6066C220.72 47.9026 221.103 48.3262 221.328 48.8775L220.179 49.3675C220.016 49 219.766 48.7295 219.429 48.5559C219.102 48.3824 218.735 48.2956 218.326 48.2956C217.928 48.2956 217.566 48.3926 217.239 48.5865C216.923 48.7805 216.765 49.0306 216.765 49.3368C216.765 49.6023 216.867 49.8115 217.071 49.9646C217.285 50.1178 217.622 50.2556 218.081 50.3781L219.215 50.6537C219.97 50.8477 220.531 51.1386 220.899 51.5265C221.277 51.9042 221.466 52.3585 221.466 52.8893C221.466 53.3282 221.338 53.7264 221.083 54.0836C220.827 54.4409 220.47 54.7216 220.011 54.9258C219.551 55.13 219.031 55.2321 218.449 55.2321Z" fill="white"/>
<path d="M80.1898 66.0103H81.1048V73.7178H80.1898V66.0103ZM82.8073 66.0103H83.7223V73.7178H82.8073V66.0103ZM85.4249 66.0103H86.3399V73.7178H85.4249V66.0103ZM89.6356 66.8822H87.4719V66.0103H92.7035V66.8822H90.5399V73.7178H89.6356V66.8822ZM98.2391 66.0103H99.2725L102.2 73.7178H101.189L100.424 71.5971H97.098L96.323 73.7178H95.3111L98.2391 66.0103ZM100.101 70.736L99.0787 67.9587L98.7773 67.1298H98.7343L98.4221 67.9587L97.4102 70.736H100.101ZM103.018 66.0103H103.933V73.7178H103.018V66.0103ZM105.268 66.0103H106.183V73.7178H105.268V66.0103ZM109.198 73.89C108.811 73.89 108.459 73.8147 108.143 73.664C107.835 73.5061 107.591 73.2908 107.411 73.0181C107.239 72.7382 107.153 72.426 107.153 72.0816C107.153 71.5146 107.364 71.0733 107.788 70.7575C108.218 70.4417 108.767 70.2839 109.435 70.2839C109.765 70.2839 110.063 70.3197 110.328 70.3915C110.594 70.4633 110.806 70.5422 110.963 70.6283V70.3484C110.963 70.0901 110.895 69.8605 110.759 69.6595C110.63 69.4514 110.454 69.2935 110.231 69.1859C110.009 69.071 109.769 69.0136 109.51 69.0136C108.9 69.0136 108.434 69.2612 108.111 69.7564L107.347 69.2505C107.569 68.9203 107.863 68.6656 108.229 68.4862C108.595 68.2996 109.008 68.2063 109.467 68.2063C110.199 68.2063 110.777 68.4036 111.2 68.7983C111.624 69.193 111.835 69.7241 111.835 70.3915V73.7178H110.963V72.932H110.92C110.748 73.2047 110.515 73.4343 110.221 73.6209C109.926 73.8003 109.586 73.89 109.198 73.89ZM109.273 73.0827C109.56 73.0827 109.833 73.0073 110.092 72.8566C110.35 72.7059 110.558 72.5014 110.716 72.243C110.881 71.9847 110.963 71.7048 110.963 71.4034C110.562 71.145 110.099 71.0159 109.575 71.0159C109.123 71.0159 108.76 71.1199 108.488 71.328C108.222 71.529 108.089 71.7873 108.089 72.1031C108.089 72.3901 108.208 72.627 108.445 72.8135C108.681 72.993 108.958 73.0827 109.273 73.0827ZM113.089 66.0103H114.004V68.4216L113.961 69.1859H114.004C114.155 68.906 114.388 68.6728 114.704 68.4862C115.027 68.2996 115.375 68.2063 115.748 68.2063C116.415 68.2063 116.918 68.4001 117.255 68.7876C117.592 69.1751 117.761 69.6918 117.761 70.3377V73.7178H116.857V70.4776C116.857 69.9824 116.735 69.62 116.491 69.3904C116.254 69.1536 115.934 69.0352 115.533 69.0352C115.246 69.0352 114.984 69.1213 114.747 69.2935C114.517 69.4586 114.334 69.681 114.198 69.9609C114.069 70.2336 114.004 70.5171 114.004 70.8113V73.7178H113.089V66.0103ZM120.73 73.89C120.343 73.89 119.991 73.8147 119.675 73.664C119.367 73.5061 119.123 73.2908 118.943 73.0181C118.771 72.7382 118.685 72.426 118.685 72.0816C118.685 71.5146 118.897 71.0733 119.32 70.7575C119.751 70.4417 120.299 70.2839 120.967 70.2839C121.297 70.2839 121.595 70.3197 121.86 70.3915C122.126 70.4633 122.338 70.5422 122.495 70.6283V70.3484C122.495 70.0901 122.427 69.8605 122.291 69.6595C122.162 69.4514 121.986 69.2935 121.763 69.1859C121.541 69.071 121.301 69.0136 121.042 69.0136C120.432 69.0136 119.966 69.2612 119.643 69.7564L118.879 69.2505C119.101 68.9203 119.395 68.6656 119.761 68.4862C120.127 68.2996 120.54 68.2063 120.999 68.2063C121.731 68.2063 122.309 68.4036 122.732 68.7983C123.156 69.193 123.367 69.7241 123.367 70.3915V73.7178H122.495V72.932H122.452C122.28 73.2047 122.047 73.4343 121.753 73.6209C121.458 73.8003 121.118 73.89 120.73 73.89ZM120.805 73.0827C121.092 73.0827 121.365 73.0073 121.624 72.8566C121.882 72.7059 122.09 72.5014 122.248 72.243C122.413 71.9847 122.495 71.7048 122.495 71.4034C122.094 71.145 121.631 71.0159 121.107 71.0159C120.655 71.0159 120.292 71.1199 120.02 71.328C119.754 71.529 119.621 71.7873 119.621 72.1031C119.621 72.3901 119.74 72.627 119.977 72.8135C120.213 72.993 120.49 73.0827 120.805 73.0827ZM127.398 73.89C126.975 73.89 126.598 73.8003 126.268 73.6209C125.945 73.4343 125.701 73.2011 125.536 72.9212H125.493V73.7178H124.621V66.0103H125.536V68.4323L125.493 69.1643H125.536C125.708 68.8916 125.956 68.6656 126.279 68.4862C126.602 68.2996 126.975 68.2063 127.398 68.2063C127.858 68.2063 128.281 68.3319 128.669 68.583C129.056 68.827 129.365 69.1643 129.594 69.5949C129.824 70.0255 129.939 70.5099 129.939 71.0481C129.939 71.5864 129.824 72.0708 129.594 72.5014C129.365 72.932 129.056 73.2728 128.669 73.524C128.281 73.768 127.858 73.89 127.398 73.89ZM127.258 73.0611C127.574 73.0611 127.865 72.9786 128.13 72.8135C128.403 72.6485 128.618 72.4153 128.776 72.1138C128.941 71.8053 129.024 71.45 129.024 71.0481C129.024 70.6463 128.941 70.2946 128.776 69.9932C128.618 69.6846 128.403 69.4478 128.13 69.2827C127.865 69.1177 127.574 69.0352 127.258 69.0352C126.943 69.0352 126.648 69.1177 126.376 69.2827C126.11 69.4406 125.895 69.6739 125.73 69.9824C125.572 70.2839 125.493 70.6391 125.493 71.0481C125.493 71.45 125.572 71.8053 125.73 72.1138C125.895 72.4224 126.11 72.6593 126.376 72.8243C126.648 72.9822 126.943 73.0611 127.258 73.0611ZM132.704 73.89C132.316 73.89 131.964 73.8147 131.649 73.664C131.34 73.5061 131.096 73.2908 130.917 73.0181C130.744 72.7382 130.658 72.426 130.658 72.0816C130.658 71.5146 130.87 71.0733 131.293 70.7575C131.724 70.4417 132.273 70.2839 132.94 70.2839C133.271 70.2839 133.568 70.3197 133.834 70.3915C134.099 70.4633 134.311 70.5422 134.469 70.6283V70.3484C134.469 70.0901 134.401 69.8605 134.264 69.6595C134.135 69.4514 133.959 69.2935 133.737 69.1859C133.515 69.071 133.274 69.0136 133.016 69.0136C132.406 69.0136 131.939 69.2612 131.616 69.7564L130.852 69.2505C131.075 68.9203 131.369 68.6656 131.735 68.4862C132.101 68.2996 132.513 68.2063 132.973 68.2063C133.705 68.2063 134.282 68.4036 134.706 68.7983C135.129 69.193 135.341 69.7241 135.341 70.3915V73.7178H134.469V72.932H134.426C134.254 73.2047 134.02 73.4343 133.726 73.6209C133.432 73.8003 133.091 73.89 132.704 73.89ZM132.779 73.0827C133.066 73.0827 133.339 73.0073 133.597 72.8566C133.855 72.7059 134.064 72.5014 134.221 72.243C134.386 71.9847 134.469 71.7048 134.469 71.4034C134.067 71.145 133.604 71.0159 133.08 71.0159C132.628 71.0159 132.266 71.1199 131.993 71.328C131.728 71.529 131.595 71.7873 131.595 72.1031C131.595 72.3901 131.713 72.627 131.95 72.8135C132.187 72.993 132.463 73.0827 132.779 73.0827ZM138.781 73.89C138.322 73.89 137.898 73.768 137.511 73.524C137.123 73.28 136.815 72.9427 136.585 72.5121C136.355 72.0744 136.241 71.5864 136.241 71.0481C136.241 70.5099 136.355 70.0255 136.585 69.5949C136.815 69.1572 137.123 68.8163 137.511 68.5723C137.898 68.3283 138.322 68.2063 138.781 68.2063C139.197 68.2063 139.57 68.2996 139.901 68.4862C140.231 68.6656 140.478 68.8916 140.643 69.1643H140.686L140.643 68.4323V66.0103H141.548V73.7178H140.686V72.9212H140.643C140.478 73.2011 140.231 73.4343 139.901 73.6209C139.57 73.8003 139.197 73.89 138.781 73.89ZM138.921 73.0611C139.237 73.0611 139.527 72.9822 139.793 72.8243C140.066 72.6593 140.281 72.4224 140.439 72.1138C140.604 71.8053 140.686 71.45 140.686 71.0481C140.686 70.6391 140.604 70.2839 140.439 69.9824C140.281 69.6739 140.066 69.4406 139.793 69.2827C139.527 69.1177 139.237 69.0352 138.921 69.0352C138.605 69.0352 138.311 69.1177 138.038 69.2827C137.773 69.4478 137.558 69.6846 137.392 69.9932C137.235 70.2946 137.156 70.6463 137.156 71.0481C137.156 71.45 137.235 71.8053 137.392 72.1138C137.558 72.4153 137.773 72.6485 138.038 72.8135C138.311 72.9786 138.605 73.0611 138.921 73.0611Z" fill="white"/>
<path d="M104.995 20.4351L87.8733 10.5515C87.3181 10.1907 86.6954 9.94674 86.0429 9.8345C85.3904 9.72225 84.7219 9.74407 84.0782 9.89862C83.4344 10.0532 82.8289 10.3372 82.2985 10.7334C81.7681 11.1297 81.3239 11.6298 80.9931 12.2032C80.6623 12.7767 80.4517 13.4116 80.3743 14.0691C80.2968 14.7266 80.3541 15.393 80.5426 16.0276C80.7311 16.6623 81.0469 17.2519 81.4707 17.7605C81.8946 18.2691 82.4175 18.6861 83.0078 18.986L100.13 28.8696C101.242 29.4351 102.53 29.5521 103.726 29.1967C104.923 28.8413 105.938 28.0405 106.561 26.9592C107.185 25.878 107.37 24.5987 107.079 23.3849C106.787 22.1711 106.042 21.1154 104.995 20.4351Z" fill="white"/>
<path d="M139.138 10.5415L122.016 0.662851C121.462 0.339721 120.849 0.129282 120.213 0.0436157C119.577 -0.0420504 118.93 -0.00125745 118.309 0.163647C117.689 0.328551 117.107 0.614322 116.598 1.00457C116.088 1.39481 115.661 1.88185 115.34 2.43773C115.019 2.99361 114.811 3.60739 114.728 4.24386C114.644 4.88032 114.688 5.52695 114.855 6.14663C115.022 6.7663 115.311 7.34683 115.703 7.85491C116.095 8.36299 116.584 8.78861 117.141 9.10736L134.263 18.9935C135.382 19.6339 136.71 19.8048 137.955 19.4685C139.2 19.1322 140.261 18.3163 140.906 17.1994C141.551 16.0824 141.727 14.7555 141.396 13.5091C141.064 12.2626 140.253 11.1983 139.138 10.549V10.5415Z" fill="white"/>
<path d="M133.584 20.1598L125.593 15.5446L117.141 20.4351C116.584 20.7538 116.095 21.1794 115.703 21.6875C115.311 22.1956 115.022 22.7761 114.855 23.3958C114.688 24.0155 114.644 24.6621 114.728 25.2986C114.811 25.935 115.019 26.5488 115.34 27.1047C115.661 27.6606 116.088 28.1476 116.598 28.5379C117.107 28.9281 117.689 29.2139 118.309 29.3788C118.93 29.5437 119.577 29.5845 120.213 29.4988C120.849 29.4131 121.462 29.2027 122.016 28.8796L135.782 20.9331C135.007 20.8156 134.262 20.5533 133.584 20.1598Z" fill="white"/>
<path d="M88.549 9.36517L96.5405 13.9804L104.995 9.09987C106.064 8.42871 106.831 7.36925 107.134 6.14428C107.438 4.91931 107.255 3.6243 106.624 2.53157C105.992 1.43884 104.962 0.633543 103.749 0.285038C102.536 -0.0634676 101.235 0.0719738 100.12 0.662874L86.354 8.60932C87.1264 8.72215 87.8709 8.97851 88.549 9.36517Z" fill="white"/>
<path d="M79.928 98.5473H81.592V99.5713H81.688C81.912 99.2086 82.248 98.9046 82.696 98.6593C83.1547 98.4139 83.672 98.2913 84.248 98.2913C84.9307 98.2913 85.56 98.4726 86.136 98.8353C86.7227 99.1979 87.1867 99.7046 87.528 100.355C87.88 100.995 88.056 101.715 88.056 102.515C88.056 103.315 87.88 104.035 87.528 104.675C87.1867 105.315 86.7227 105.822 86.136 106.195C85.56 106.558 84.9307 106.739 84.248 106.739C83.672 106.739 83.1547 106.617 82.696 106.371C82.248 106.126 81.912 105.817 81.688 105.443H81.592L81.688 106.563V109.939H79.928V98.5473ZM83.944 105.123C84.36 105.123 84.744 105.017 85.096 104.803C85.4587 104.59 85.7467 104.286 85.96 103.891C86.184 103.486 86.296 103.027 86.296 102.515C86.296 102.003 86.184 101.55 85.96 101.155C85.7467 100.75 85.4587 100.441 85.096 100.227C84.744 100.014 84.36 99.9073 83.944 99.9073C83.528 99.9073 83.1387 100.014 82.776 100.227C82.424 100.441 82.136 100.745 81.912 101.139C81.6987 101.534 81.592 101.993 81.592 102.515C81.592 103.038 81.6987 103.497 81.912 103.891C82.136 104.286 82.424 104.59 82.776 104.803C83.1387 105.017 83.528 105.123 83.944 105.123ZM89.5076 98.5473H91.1716V99.7313H91.2676C91.4383 99.3259 91.7476 98.9899 92.1956 98.7233C92.6436 98.4459 93.1023 98.3073 93.5716 98.3073C93.9556 98.3073 94.2703 98.3606 94.5156 98.4673V100.307C94.153 100.126 93.7476 100.035 93.2996 100.035C92.7236 100.035 92.2383 100.259 91.8436 100.707C91.4596 101.145 91.2676 101.683 91.2676 102.323V106.483H89.5076V98.5473ZM98.9681 106.739C98.1895 106.739 97.4855 106.558 96.8561 106.195C96.2375 105.833 95.7521 105.331 95.4001 104.691C95.0481 104.041 94.8721 103.315 94.8721 102.515C94.8721 101.747 95.0375 101.043 95.3681 100.403C95.7095 99.7526 96.1841 99.2406 96.7921 98.8673C97.4001 98.4833 98.0935 98.2913 98.8721 98.2913C99.6721 98.2913 100.365 98.4673 100.952 98.8193C101.549 99.1713 102.003 99.6619 102.312 100.291C102.621 100.91 102.776 101.625 102.776 102.435C102.776 102.531 102.771 102.627 102.76 102.723C102.749 102.819 102.744 102.873 102.744 102.883H96.6321C96.6855 103.609 96.9468 104.169 97.4161 104.563C97.8855 104.958 98.4188 105.155 99.0161 105.155C99.9335 105.155 100.637 104.729 101.128 103.875L102.632 104.595C102.28 105.246 101.789 105.769 101.16 106.163C100.541 106.547 99.8108 106.739 98.9681 106.739ZM100.984 101.539C100.963 101.283 100.877 101.022 100.728 100.755C100.579 100.489 100.344 100.265 100.024 100.083C99.7148 99.8913 99.3255 99.7953 98.8561 99.7953C98.3335 99.7953 97.8801 99.9553 97.4961 100.275C97.1228 100.595 96.8668 101.017 96.7281 101.539H100.984ZM107.311 106.739C106.404 106.739 105.652 106.531 105.055 106.115C104.468 105.689 104.052 105.155 103.807 104.515L105.375 103.843C105.556 104.281 105.817 104.611 106.159 104.835C106.511 105.059 106.895 105.171 107.311 105.171C107.748 105.171 108.105 105.091 108.383 104.931C108.66 104.761 108.799 104.542 108.799 104.275C108.799 104.019 108.687 103.811 108.463 103.651C108.239 103.481 107.871 103.331 107.359 103.203L106.271 102.947C105.673 102.809 105.156 102.553 104.719 102.179C104.292 101.795 104.079 101.299 104.079 100.691C104.079 99.9553 104.383 99.3739 104.991 98.9473C105.599 98.5099 106.345 98.2913 107.231 98.2913C107.967 98.2913 108.617 98.4459 109.183 98.7553C109.759 99.0646 110.175 99.5126 110.431 100.099L108.879 100.755C108.729 100.425 108.5 100.179 108.191 100.019C107.881 99.8593 107.545 99.7793 107.183 99.7793C106.831 99.7793 106.521 99.8593 106.255 100.019C105.988 100.169 105.855 100.371 105.855 100.627C105.855 100.851 105.945 101.033 106.127 101.171C106.319 101.31 106.617 101.427 107.023 101.523L108.207 101.811C109.007 102.014 109.604 102.323 109.999 102.739C110.393 103.145 110.591 103.635 110.591 104.211C110.591 104.681 110.447 105.107 110.159 105.491C109.881 105.875 109.492 106.179 108.991 106.403C108.5 106.627 107.94 106.739 107.311 106.739ZM115.749 106.739C114.971 106.739 114.267 106.558 113.637 106.195C113.019 105.833 112.533 105.331 112.181 104.691C111.829 104.041 111.653 103.315 111.653 102.515C111.653 101.747 111.819 101.043 112.149 100.403C112.491 99.7526 112.965 99.2406 113.573 98.8673C114.181 98.4833 114.875 98.2913 115.653 98.2913C116.453 98.2913 117.147 98.4673 117.733 98.8193C118.331 99.1713 118.784 99.6619 119.093 100.291C119.403 100.91 119.557 101.625 119.557 102.435C119.557 102.531 119.552 102.627 119.541 102.723C119.531 102.819 119.525 102.873 119.525 102.883H113.413C113.467 103.609 113.728 104.169 114.197 104.563C114.667 104.958 115.2 105.155 115.797 105.155C116.715 105.155 117.419 104.729 117.909 103.875L119.413 104.595C119.061 105.246 118.571 105.769 117.941 106.163C117.323 106.547 116.592 106.739 115.749 106.739ZM117.765 101.539C117.744 101.283 117.659 101.022 117.509 100.755C117.36 100.489 117.125 100.265 116.805 100.083C116.496 99.8913 116.107 99.7953 115.637 99.7953C115.115 99.7953 114.661 99.9553 114.277 100.275C113.904 100.595 113.648 101.017 113.509 101.539H117.765ZM121.086 98.5473H122.75V99.6033H122.846C123.08 99.2193 123.422 98.9046 123.87 98.6593C124.318 98.4139 124.803 98.2913 125.326 98.2913C126.307 98.2913 127.048 98.5793 127.55 99.1553C128.062 99.7313 128.318 100.526 128.318 101.539V106.483H126.558V101.779C126.558 100.531 125.976 99.9073 124.814 99.9073C124.227 99.9073 123.752 100.142 123.39 100.611C123.027 101.081 122.846 101.635 122.846 102.275V106.483H121.086V98.5473ZM133.1 106.611C132.748 106.611 132.417 106.558 132.108 106.451C131.809 106.334 131.558 106.174 131.356 105.971C130.897 105.523 130.668 104.899 130.668 104.099V100.099H129.276V98.5473H130.668V96.1793H132.428V98.5473H134.364V100.099H132.428V103.715C132.428 104.153 132.513 104.462 132.684 104.643C132.844 104.857 133.105 104.963 133.468 104.963C133.777 104.963 134.081 104.873 134.38 104.691V106.403C134.006 106.542 133.58 106.611 133.1 106.611ZM139.061 106.739C138.154 106.739 137.402 106.531 136.805 106.115C136.218 105.689 135.802 105.155 135.557 104.515L137.125 103.843C137.306 104.281 137.567 104.611 137.909 104.835C138.261 105.059 138.645 105.171 139.061 105.171C139.498 105.171 139.855 105.091 140.133 104.931C140.41 104.761 140.549 104.542 140.549 104.275C140.549 104.019 140.437 103.811 140.213 103.651C139.989 103.481 139.621 103.331 139.109 103.203L138.021 102.947C137.423 102.809 136.906 102.553 136.469 102.179C136.042 101.795 135.829 101.299 135.829 100.691C135.829 99.9553 136.133 99.3739 136.741 98.9473C137.349 98.5099 138.095 98.2913 138.981 98.2913C139.717 98.2913 140.367 98.4459 140.933 98.7553C141.509 99.0646 141.925 99.5126 142.181 100.099L140.629 100.755C140.479 100.425 140.25 100.179 139.941 100.019C139.631 99.8593 139.295 99.7793 138.933 99.7793C138.581 99.7793 138.271 99.8593 138.005 100.019C137.738 100.169 137.605 100.371 137.605 100.627C137.605 100.851 137.695 101.033 137.877 101.171C138.069 101.31 138.367 101.427 138.773 101.523L139.957 101.811C140.757 102.014 141.354 102.323 141.749 102.739C142.143 103.145 142.341 103.635 142.341 104.211C142.341 104.681 142.197 105.107 141.909 105.491C141.631 105.875 141.242 106.179 140.741 106.403C140.25 106.627 139.69 106.739 139.061 106.739Z" fill="white"/>
</svg>
