<svg width="212" height="73" viewBox="0 0 212 73" fill="none" xmlns="http://www.w3.org/2000/svg">
<path d="M101.767 49.6475L103.22 49.4927L103.312 52.466C99.4813 52.9925 96.2064 53.2712 93.4877 53.2712C89.873 53.2712 87.3087 52.2182 85.7949 50.1121C84.281 48.0061 83.5396 44.7231 83.5396 40.2941C83.5396 31.4363 87.0616 27.0073 94.0747 27.0073C97.4731 27.0073 100.006 27.9674 101.675 29.8567C103.343 31.746 104.177 34.7502 104.177 38.8075L103.961 41.6879H87.3396C87.3396 44.4753 87.8339 46.5504 88.8535 47.8822C89.873 49.2139 91.6031 49.8953 94.1056 49.8953C96.6389 49.9263 99.2032 49.8334 101.767 49.6475ZM100.408 38.6836C100.408 35.5865 99.9138 33.3875 98.9252 32.1176C97.9365 30.8478 96.33 30.1974 94.1056 30.1974C91.8811 30.1974 90.1819 30.8788 89.0697 32.2106C87.9575 33.5423 87.3705 35.7103 87.3396 38.6836H100.408Z" fill="white"/>
<path d="M109.46 53.3023V19.791H113.229V53.3023H109.46Z" fill="white"/>
<path d="M137.018 35.1529V47.8822C137.018 49.152 140.139 49.0901 140.139 49.0901L139.953 52.435C137.296 52.435 135.103 52.6518 133.774 51.382C130.747 52.7137 127.75 53.2712 124.722 53.2712C122.405 53.2712 120.644 52.6208 119.439 51.289C118.234 49.9882 117.616 48.099 117.616 45.6212C117.616 43.1745 118.234 41.3472 119.47 40.2012C120.706 39.0553 122.652 38.312 125.309 38.0642L133.218 37.3209V35.1529C133.218 33.4494 132.848 32.2105 132.106 31.4672C131.365 30.7239 130.345 30.3523 129.078 30.3523H119.161V27.0073H128.831C131.674 27.0073 133.744 27.6577 135.041 28.9895C136.37 30.2903 137.018 32.3654 137.018 35.1529ZM121.509 45.4354C121.509 48.5326 122.776 50.0812 125.34 50.0812C127.626 50.0812 129.882 49.7095 132.075 48.9352L133.218 48.5326V40.2012L125.773 40.9136C124.259 41.0375 123.178 41.4711 122.498 42.2144C121.849 42.9577 121.509 44.0417 121.509 45.4354Z" fill="white"/>
<path d="M151.755 30.4143C148.11 30.4143 146.256 31.6841 146.256 34.2547C146.256 35.4317 146.689 36.2679 147.523 36.7634C148.357 37.259 150.272 37.7545 153.269 38.281C156.266 38.8076 158.367 39.5199 159.603 40.48C160.838 41.4092 161.456 43.1746 161.456 45.7762C161.456 48.3778 160.622 50.267 158.954 51.4749C157.285 52.6828 154.876 53.3023 151.663 53.3023C149.593 53.3023 142.641 52.528 142.641 52.528L142.858 49.245C146.843 49.6166 149.747 49.9264 151.693 49.9264C153.64 49.9264 155.123 49.6166 156.142 48.9972C157.162 48.3778 157.687 47.3247 157.687 45.8691C157.687 44.4134 157.255 43.4223 156.389 42.8958C155.524 42.3693 153.609 41.8737 150.643 41.4092C147.677 40.9446 145.576 40.2632 144.341 39.3341C143.105 38.4359 142.487 36.7325 142.487 34.2857C142.487 31.839 143.352 30.0116 145.082 28.8347C146.812 27.6578 148.975 27.0693 151.539 27.0693C153.578 27.0693 160.684 27.5959 160.684 27.5959V30.9098C156.976 30.662 153.918 30.4143 151.755 30.4143Z" fill="white"/>
<path d="M179.715 30.8169H171.713V42.8958C171.713 45.7762 171.929 47.6964 172.331 48.5946C172.764 49.4928 173.752 49.9573 175.328 49.9573L179.808 49.6476L180.055 52.7757C177.799 53.1474 176.1 53.3332 174.926 53.3332C172.3 53.3332 170.508 52.6828 169.489 51.413C168.469 50.1432 167.975 47.6964 167.975 44.1037V30.8169H164.391V27.5339H167.975V19.791H171.713V27.5029H179.715V30.8169Z" fill="white"/>
<path d="M184.967 24.189V19.791H188.736V24.189H184.967ZM184.967 53.2713V27.7197H188.736V53.2713H184.967Z" fill="white"/>
<path d="M205.08 27.0073C206.192 27.0073 208.076 27.2241 210.733 27.6268L211.938 27.7816L211.784 30.8478C209.096 30.5381 207.119 30.3832 205.852 30.3832C203.01 30.3832 201.063 31.0646 200.044 32.4274C199.024 33.7901 198.499 36.3298 198.499 40.0154C198.499 43.701 198.962 46.2716 199.92 47.7273C200.878 49.183 202.855 49.8953 205.883 49.8953L211.815 49.4307L211.969 52.5589C208.849 53.0234 206.501 53.2712 204.956 53.2712C201.032 53.2712 198.314 52.2492 196.831 50.236C195.348 48.2229 194.575 44.816 194.575 40.0154C194.575 35.2148 195.379 31.8389 196.985 29.9187C198.654 27.9984 201.341 27.0073 205.08 27.0073Z" fill="white"/>
<path d="M73.0971 38.2499C73.0971 32.1175 69.297 26.7285 63.5815 24.6534C63.8286 23.3526 63.9522 22.0518 63.9522 20.72C63.9522 9.29147 54.6838 0 43.3145 0C36.6412 0 30.4623 3.19007 26.5695 8.57913C24.654 7.09249 22.306 6.28723 19.8653 6.28723C13.81 6.28723 8.8977 11.2117 8.8977 17.2821C8.8977 18.6139 9.14485 19.9147 9.57738 21.1226C3.89274 23.1667 0 28.6487 0 34.7501C0 40.9134 3.83095 46.3025 9.54649 48.3776C9.29933 49.6474 9.17575 50.9792 9.17575 52.311C9.17575 63.7085 18.4133 72.969 29.7826 72.969C36.4558 72.969 42.6348 69.748 46.4966 64.3589C48.4121 65.8765 50.7601 66.7128 53.2008 66.7128C59.2562 66.7128 64.1685 61.7883 64.1685 55.7179C64.1685 54.3861 63.9213 53.0853 63.4888 51.8774C69.1734 49.8333 73.0971 44.3513 73.0971 38.2499ZM28.2996 10.7781C31.6671 5.85363 37.2282 2.91133 43.16 2.91133C53.1081 2.91133 61.2026 11.0259 61.2026 20.9987C61.2026 22.2066 61.079 23.3835 60.8627 24.5605L44.7356 38.7454L28.7321 31.4361L25.6118 24.7463L28.2996 10.7781ZM20.2052 8.98176C22.1207 8.98176 23.9435 9.60119 25.4573 10.7471L23.0475 23.2287L12.0799 20.6271C11.74 19.667 11.5546 18.6759 11.5546 17.6228C11.5546 12.8842 15.4165 8.98176 20.2052 8.98176ZM2.81143 34.7811C2.81143 29.6088 6.20985 24.9011 11.1221 23.2597L23.1711 26.14L25.9825 32.1795L10.5969 46.1167C5.9318 44.3203 2.81143 39.8294 2.81143 34.7811ZM44.8592 62.2219C41.4917 67.2083 35.8997 70.1506 29.9061 70.1506C19.9271 70.1506 11.8018 62.0051 11.8018 52.0322C11.8018 50.7934 11.9254 49.5855 12.1416 48.4086L27.8671 34.1616L43.9324 41.5019L47.4853 48.3157L44.8592 62.2219ZM52.8919 63.9873C51.0073 63.9873 49.1845 63.3678 47.6706 62.1909L50.0495 49.7404L60.9863 52.311C61.3261 53.2711 61.5115 54.2622 61.5115 55.3152C61.5424 60.1158 57.6497 63.9873 52.8919 63.9873ZM61.944 49.7094L49.8951 46.891L46.682 40.7586L62.4384 26.9143C67.1035 28.6797 70.2238 33.1706 70.2238 38.2189C70.2547 43.3912 66.8563 48.0989 61.944 49.7094Z" fill="white"/>
</svg>
