<svg width="1142" height="900" viewBox="0 0 1142 900" fill="none" xmlns="http://www.w3.org/2000/svg">
<path d="M830.728 268.108C867.327 253.837 894.054 247.039 933.182 248.704C1008.01 251.886 1052.79 386.291 1099.49 385.613C1111.73 385.438 1131.17 382.225 1141.5 389.168C1130.5 404.19 1119.51 409.467 1114.42 429.999C1109.42 450.142 1109.69 473.48 1095.45 489.931C1089.81 496.436 1082.26 501.035 1076.89 507.771C1060.77 528.024 1069.85 557.644 1069.07 583.688C1067.72 629.088 1028.85 670.158 984.382 673.172C959.811 674.838 934.303 666.402 911.002 674.525C872.174 688.06 861.081 737.313 853.341 778.377C846.348 815.472 836.934 852.851 817.291 884.905C814.103 890.108 810.605 895.162 806.826 900L-0.000113629 900L-0.000112154 0.0927467L251 0.092765C308.155 32.2521 352.844 56.6224 365.156 60.9957C390.532 70.0095 418.265 66.8425 445.15 66.3699C504.968 65.3173 568.099 80.086 610.955 122.555C650.287 161.533 669.051 220.029 713.596 252.67C730.325 264.721 749.779 272.439 770.219 275.133C790.659 277.827 811.449 275.413 830.728 268.108Z" fill="url(#paint0_linear_49_1528)"/>
<defs>
<linearGradient id="paint0_linear_49_1528" x1="1174.5" y1="384" x2="214.784" y2="577.207" gradientUnits="userSpaceOnUse">
<stop stop-color="#091A2D"/>
<stop offset="1" stop-color="#1B3B54"/>
</linearGradient>
</defs>
</svg>
