<svg width="122" height="106" viewBox="0 0 122 106" fill="none" xmlns="http://www.w3.org/2000/svg">
<g filter="url(#filter0_d_47_105)">
<path fill-rule="evenodd" clip-rule="evenodd" d="M99.197 15.5064C98.892 14.9728 98.3181 14.6503 97.7037 14.6673C97.0892 14.6844 96.5341 15.0382 96.2592 15.588L90.4259 27.2546C90.1675 27.7713 90.1952 28.3849 90.4988 28.8762C90.8025 29.3676 91.339 29.6667 91.9166 29.6667H104.417C105.011 29.6667 105.56 29.3504 105.858 28.8365C106.156 28.3227 106.158 27.6889 105.864 27.1731L99.197 15.5064ZM94.6133 26.3333L97.8479 19.8641L101.545 26.3333H94.6133Z" fill="#3AA0F3" fill-opacity="0.9"/>
<path fill-rule="evenodd" clip-rule="evenodd" d="M34.4166 21.3333C34.4166 20.4129 33.6704 19.6667 32.7499 19.6667C31.8294 19.6667 31.0833 20.4129 31.0833 21.3333V25.5H26.0833C25.1628 25.5 24.4166 26.2462 24.4166 27.1667V47.1667C24.4166 48.0871 25.1628 48.8333 26.0833 48.8333H30.2499V52.1667C30.2499 53.0871 30.9961 53.8333 31.9166 53.8333H32.7499C33.6704 53.8333 34.4166 53.0871 34.4166 52.1667V48.8333H36.9166V47.1714C36.9166 48.8333 36.9183 48.8333 36.9183 48.8333L36.9241 48.8333L36.9334 48.8333L36.9578 48.833L36.9863 48.8324L37.0283 48.8312C37.0845 48.8293 37.1594 48.8258 37.2502 48.8193C37.4312 48.8064 37.6789 48.7813 37.9718 48.7325C38.5497 48.6362 39.3457 48.4405 40.1619 48.0324C40.9847 47.621 41.8581 46.9778 42.5221 45.9818C43.1931 44.9753 43.5833 43.7083 43.5833 42.1667C43.5833 40.625 43.1931 39.358 42.5221 38.3515C41.9674 37.5195 41.2665 36.9336 40.5711 36.5235C41.3406 35.4975 41.9166 34.0753 41.9166 32.1667C41.9166 29.5694 40.8499 27.8729 39.6808 26.8499C39.1179 26.3574 38.5568 26.0417 38.1318 25.8469C37.918 25.7489 37.7342 25.6794 37.5953 25.6323C37.5257 25.6087 37.4669 25.5905 37.4207 25.577C37.3976 25.5703 37.3775 25.5647 37.3608 25.5602L37.3383 25.5542L37.3289 25.5518L37.3247 25.5507L37.3227 25.5502C37.3227 25.5502 37.3208 25.5498 36.9166 27.1667L37.3208 25.5498C37.1886 25.5167 37.0529 25.5 36.9166 25.5H34.4166V21.3333ZM27.7499 38.8333H36.9064L36.9172 38.8336C36.9342 38.8342 36.9668 38.8356 37.0127 38.8389C37.1051 38.8455 37.248 38.8595 37.4238 38.8888C37.7834 38.9487 38.2374 39.0655 38.6712 39.2824C39.0985 39.496 39.4751 39.7903 39.7486 40.2005C40.0151 40.6003 40.2499 41.2083 40.2499 42.1667C40.2499 43.125 40.0151 43.733 39.7486 44.1328C39.4751 44.543 39.0985 44.8373 38.6712 45.051C38.2374 45.2679 37.7834 45.3846 37.4238 45.4445C37.248 45.4739 37.1051 45.4879 37.0127 45.4945C36.9668 45.4977 36.9342 45.4991 36.9172 45.4997L36.9064 45.5H27.7499V38.8333ZM36.6422 35.5H27.7499V28.8333H36.6422C36.6723 28.8457 36.7061 28.8602 36.743 28.8771C36.943 28.9688 37.2152 29.1218 37.4857 29.3585C37.9832 29.7938 38.5833 30.5972 38.5833 32.1667C38.5833 33.7361 37.9832 34.5396 37.4857 34.9749C37.2152 35.2116 36.943 35.3646 36.743 35.4562C36.7061 35.4731 36.6723 35.4877 36.6422 35.5Z" fill="#3AA0F3" fill-opacity="0.9"/>
<path fill-rule="evenodd" clip-rule="evenodd" d="M77.3732 67.7779C77.0566 67.391 76.5831 67.1667 76.0833 67.1667C75.5834 67.1667 75.1099 67.391 74.7933 67.7779L67.2933 76.9446C66.8077 77.5381 66.7898 78.3865 67.2499 79L74.7499 89C75.0647 89.4197 75.5587 89.6667 76.0833 89.6667C76.6078 89.6667 77.1018 89.4197 77.4166 89L84.9166 79C85.3767 78.3865 85.3588 77.5381 84.8732 76.9446L77.3732 67.7779ZM76.0833 85.2222L70.7001 78.0447L76.0833 71.4653L81.4664 78.0447L76.0833 85.2222Z" fill="#3AA0F3" fill-opacity="0.9"/>
<path fill-rule="evenodd" clip-rule="evenodd" d="M113.583 23.8333C113.583 32.5778 106.494 39.6667 97.7499 39.6667C96.3616 39.6667 95.0151 39.488 93.732 39.1524L84.4498 61.5843C90.8431 64.6911 95.2499 71.2476 95.2499 78.8333C95.2499 89.4188 86.6687 98 76.0833 98C65.4978 98 56.9166 89.4188 56.9166 78.8333C56.9166 74.1407 58.603 69.8419 61.4029 66.51L48.067 53.1741C43.8749 57.1954 38.1843 59.6667 31.9166 59.6667C19.0299 59.6667 8.58325 49.22 8.58325 36.3333C8.58325 23.4467 19.0299 13 31.9166 13C43.2667 13 52.7241 21.104 54.818 31.8415L82.0168 25.6246C81.9506 25.0366 81.9166 24.439 81.9166 23.8333C81.9166 15.0888 89.0054 8 97.7499 8C106.494 8 113.583 15.0888 113.583 23.8333ZM110.25 23.8333C110.25 30.7369 104.653 36.3333 97.7499 36.3333C90.8464 36.3333 85.2499 30.7369 85.2499 23.8333C85.2499 16.9298 90.8464 11.3333 97.7499 11.3333C104.653 11.3333 110.25 16.9298 110.25 23.8333ZM82.7376 28.8791L55.2214 35.1686C55.2403 35.5544 55.2499 35.9428 55.2499 36.3333C55.2499 41.7513 53.4033 46.7379 50.3052 50.6983L63.7599 64.153C67.0918 61.3531 71.3906 59.6667 76.0833 59.6667C77.9041 59.6667 79.6657 59.9206 81.3345 60.3949L90.6134 37.971C86.9275 36.1067 84.0694 32.8433 82.7376 28.8791ZM51.9166 36.3333C51.9166 47.379 42.9623 56.3333 31.9166 56.3333C20.8709 56.3333 11.9166 47.379 11.9166 36.3333C11.9166 25.2876 20.8709 16.3333 31.9166 16.3333C42.9623 16.3333 51.9166 25.2876 51.9166 36.3333ZM76.0833 94.6667C84.8278 94.6667 91.9166 87.5778 91.9166 78.8333C91.9166 70.0888 84.8278 63 76.0833 63C67.3387 63 60.2499 70.0888 60.2499 78.8333C60.2499 87.5778 67.3387 94.6667 76.0833 94.6667Z" fill="#3AA0F3" fill-opacity="0.9"/>
</g>
<defs>
<filter id="filter0_d_47_105" x="0.583252" y="0" width="121" height="106" filterUnits="userSpaceOnUse" color-interpolation-filters="sRGB">
<feFlood flood-opacity="0" result="BackgroundImageFix"/>
<feColorMatrix in="SourceAlpha" type="matrix" values="0 0 0 0 0 0 0 0 0 0 0 0 0 0 0 0 0 0 127 0" result="hardAlpha"/>
<feOffset/>
<feGaussianBlur stdDeviation="4"/>
<feColorMatrix type="matrix" values="0 0 0 0 0.564706 0 0 0 0 0.792157 0 0 0 0 0.976471 0 0 0 0.24 0"/>
<feBlend mode="normal" in2="BackgroundImageFix" result="effect1_dropShadow_47_105"/>
<feBlend mode="normal" in="SourceGraphic" in2="effect1_dropShadow_47_105" result="shape"/>
</filter>
</defs>
</svg>
