<svg width="110" height="110" viewBox="0 0 110 110" fill="none" xmlns="http://www.w3.org/2000/svg">
<g filter="url(#filter0_d_47_121)">
<path d="M27.6504 21.25V13.1034C29.0728 13.8793 32.4607 15.2759 34.6331 14.6552C36.8056 14.0345 35.0211 11.2931 33.8573 10C37.3454 11.7072 43.9435 9.99995 51.7021 10C57.5428 10 61.4049 11.3191 64.1159 14.2882M66.4435 17.7586C65.7722 16.4161 65.0061 15.2632 64.1159 14.2882M64.1159 14.2882C68.3831 11.9397 76.9176 11.9397 78.8573 21.6379" stroke="#3AA0F3" stroke-opacity="0.9" stroke-width="2.4" stroke-linecap="round" stroke-linejoin="round"/>
</g>
<g filter="url(#filter1_d_47_121)">
<path d="M28.0387 39.4831C28.0387 39.4831 10.1938 37.9312 10.1938 32.8883M10.1938 32.8883V62.7588M10.1938 32.8883C10.1938 29.8758 17.531 27.8322 28.8145 26.6749M99.8059 32.8883C99.8059 37.5436 84.2887 39.4831 84.2887 39.4831M99.8059 32.8883V47.6295M99.8059 32.8883C99.8059 29.8726 91.9921 27.671 79.6335 26.4942M34.2456 79.4398C34.2456 79.4398 10.1938 81.7676 10.1938 86.8105M10.1938 86.8105V75.9484M10.1938 86.8105C10.1938 89.7534 17.1958 91.7716 28.0387 92.9422M99.8059 86.8105C99.8059 82.1551 77.6938 79.8277 77.6938 79.8277M99.8059 86.8105V60.4312M99.8059 86.8105C99.8059 89.6149 93.0485 91.7153 82.1627 92.9422M10.1938 67.8019V70.1295M99.8059 51.8967V55.0001M11.3576 100L20.2801 95.7329M98.6421 99.6122L89.7197 95.345M28.0387 92.9422C35.776 93.7775 45.4692 94.1812 55.9697 94.1812C65.9952 94.1812 74.9781 93.7519 82.1627 92.9422M28.0387 92.9422L41.6358 86.0369C42.5849 85.5549 43.2075 84.606 43.2719 83.5435L43.9438 72.457M43.9438 72.457L51.2117 79.7249C51.7743 80.2875 52.5374 80.6036 53.333 80.6036H58.1297C58.9774 80.6036 59.7856 80.2449 60.3543 79.6163L66.8318 72.457M43.9438 72.457C43.9438 72.457 38.1249 66.5 38.1249 65.0864C38.1249 63.6727 38.1249 62.3708 38.1249 62.3708C38.1249 62.3708 38.1249 62.3708 38.1249 62.3708V61.207M66.8318 72.457L67.1661 83.4906C67.1992 84.5816 67.8222 85.5686 68.7929 86.0677L82.1627 92.9422M66.8318 72.457C66.8318 72.457 73.4266 66 73.4266 65.0864C73.4266 64.1727 73.4266 62.3708 73.4266 62.3708C73.4266 62.3708 73.4266 62.3708 73.4266 62.3708V61.207M73.4266 61.207C73.4266 61.207 64.5042 61.207 62.5645 61.207C60.6249 61.207 57.5214 57.3277 55.5818 57.3277C53.6421 57.3277 51.3145 61.207 48.9869 61.207C46.6594 61.207 38.1249 61.207 38.1249 61.207M73.4266 61.207C73.4266 61.207 75.3663 61.207 77.6938 58.8795C79.4806 57.0927 79.6672 55.5345 79.6574 54.9069C79.6543 54.7094 79.6335 54.5127 79.6335 54.3152V46.4657C79.6335 46.4657 79.6335 46.4657 79.6335 46.4657C79.6335 46.4654 79.6334 45.6897 79.2456 44.9139C78.8576 44.1381 77.6939 44.1381 77.6938 44.1381C77.6938 44.1381 77.6938 44.1381 77.6938 44.1381H76.918M33.8576 44.1381C33.8576 44.1381 33.0818 44.1381 32.3059 44.9139C31.5301 45.6898 31.5301 46.4657 31.5301 46.4657C31.5301 46.4657 31.5301 46.4657 31.5301 46.4657V56.1639C31.5301 56.1639 31.5301 56.1639 31.5301 56.1639C31.5301 56.164 31.5301 57.3277 33.8576 59.2674C36.1852 61.207 38.1249 61.207 38.1249 61.207M33.8576 44.1381H38.1249M33.8576 44.1381V34.4398M76.918 44.1381V39.4831M76.918 44.1381H73.8145M76.918 39.4831C75.6429 39.562 74.0117 39.5554 72.2628 39.3269M76.918 39.4831C78.6646 34.8085 79.2952 31.9854 79.6335 26.4942M61.4007 32.8883C63.6147 31.5255 52.0924 38.6354 40.4525 37.1553M61.4007 32.8883C63.8163 37.1824 68.3362 38.8139 72.2628 39.3269M61.4007 32.8883C64.5838 30.8925 65.7685 29.3687 66.4438 25.6851M40.4525 37.1553L38.1249 44.1381M40.4525 37.1553C37.3782 37.0165 36.2833 36.3084 33.8576 34.4398M38.1249 44.1381H73.8145M33.8576 34.4398C30.8275 31.8565 29.9622 30.054 28.8145 26.6749M28.8145 26.6749C36.4196 25.8949 45.8173 25.5176 55.9697 25.5176C59.6106 25.5176 63.1141 25.5742 66.4438 25.6851M73.8145 44.1381L72.2628 39.3269M79.6335 26.4942C75.6687 26.1167 71.2362 25.8447 66.4438 25.6851" stroke="#3AA0F3" stroke-opacity="0.9" stroke-width="2.4" stroke-linecap="round" stroke-linejoin="round"/>
</g>
<defs>
<filter id="filter0_d_47_121" x="18.4504" y="0.799805" width="69.6072" height="30.0383" filterUnits="userSpaceOnUse" color-interpolation-filters="sRGB">
<feFlood flood-opacity="0" result="BackgroundImageFix"/>
<feColorMatrix in="SourceAlpha" type="matrix" values="0 0 0 0 0 0 0 0 0 0 0 0 0 0 0 0 0 0 127 0" result="hardAlpha"/>
<feOffset/>
<feGaussianBlur stdDeviation="4"/>
<feColorMatrix type="matrix" values="0 0 0 0 0.564706 0 0 0 0 0.792157 0 0 0 0 0.976471 0 0 0 0.24 0"/>
<feBlend mode="normal" in2="BackgroundImageFix" result="effect1_dropShadow_47_121"/>
<feBlend mode="normal" in="SourceGraphic" in2="effect1_dropShadow_47_121" result="shape"/>
</filter>
<filter id="filter1_d_47_121" x="0.993896" y="16.3176" width="108.012" height="92.8828" filterUnits="userSpaceOnUse" color-interpolation-filters="sRGB">
<feFlood flood-opacity="0" result="BackgroundImageFix"/>
<feColorMatrix in="SourceAlpha" type="matrix" values="0 0 0 0 0 0 0 0 0 0 0 0 0 0 0 0 0 0 127 0" result="hardAlpha"/>
<feOffset/>
<feGaussianBlur stdDeviation="4"/>
<feColorMatrix type="matrix" values="0 0 0 0 0.564706 0 0 0 0 0.792157 0 0 0 0 0.976471 0 0 0 0.24 0"/>
<feBlend mode="normal" in2="BackgroundImageFix" result="effect1_dropShadow_47_121"/>
<feBlend mode="normal" in="SourceGraphic" in2="effect1_dropShadow_47_121" result="shape"/>
</filter>
</defs>
</svg>
